<svg xmlns="http://www.w3.org/2000/svg" xmlns:xlink="http://www.w3.org/1999/xlink" preserveAspectRatio="xMidYMid" width="193.5" height="80.03" viewBox="0 0 193.5 80.03">
  <defs>
    <style>
      .cls-1 {
        fill: #fff;
        fill-rule: evenodd;
      }
    </style>
  </defs>
  <path d="M193.433,64.459 C193.382,64.575 193.315,64.676 193.230,64.758 C193.144,64.841 193.045,64.906 192.933,64.952 C192.820,64.998 192.703,65.021 192.580,65.021 C192.442,65.021 192.317,64.995 192.202,64.947 C192.088,64.899 191.990,64.834 191.909,64.748 C191.827,64.664 191.763,64.563 191.716,64.446 C191.670,64.330 191.646,64.205 191.646,64.069 C191.646,63.927 191.671,63.798 191.721,63.680 C191.771,63.563 191.839,63.464 191.924,63.380 C192.009,63.297 192.109,63.233 192.221,63.187 C192.335,63.140 192.454,63.118 192.580,63.118 C192.703,63.118 192.820,63.140 192.933,63.187 C193.045,63.233 193.144,63.297 193.230,63.380 C193.315,63.464 193.382,63.563 193.433,63.680 C193.482,63.798 193.508,63.927 193.508,64.069 C193.508,64.211 193.482,64.341 193.433,64.459 ZM193.249,63.751 C193.212,63.654 193.160,63.571 193.095,63.502 C193.028,63.432 192.951,63.378 192.863,63.340 C192.775,63.303 192.682,63.283 192.580,63.283 C192.477,63.283 192.381,63.303 192.292,63.340 C192.202,63.378 192.125,63.432 192.059,63.502 C191.993,63.571 191.942,63.654 191.904,63.751 C191.868,63.848 191.849,63.954 191.849,64.069 C191.849,64.178 191.865,64.279 191.899,64.374 C191.933,64.469 191.983,64.552 192.046,64.623 C192.109,64.695 192.185,64.752 192.275,64.793 C192.365,64.834 192.466,64.854 192.580,64.854 C192.682,64.854 192.775,64.836 192.863,64.798 C192.951,64.760 193.028,64.706 193.095,64.637 C193.160,64.567 193.212,64.484 193.249,64.388 C193.285,64.293 193.305,64.186 193.305,64.069 C193.305,63.954 193.285,63.848 193.249,63.751 ZM192.825,64.614 L192.554,64.163 L192.392,64.163 L192.392,64.614 L192.219,64.614 L192.219,63.560 L192.618,63.560 C192.744,63.560 192.839,63.585 192.904,63.631 C192.968,63.679 193.000,63.756 193.000,63.864 C193.000,63.959 192.975,64.027 192.922,64.072 C192.868,64.116 192.804,64.142 192.726,64.150 L193.021,64.614 L192.825,64.614 ZM192.754,63.991 C192.776,63.979 192.794,63.962 192.807,63.940 C192.820,63.919 192.828,63.889 192.828,63.850 C192.828,63.818 192.820,63.793 192.806,63.774 C192.792,63.755 192.774,63.741 192.751,63.731 C192.729,63.720 192.707,63.714 192.678,63.712 C192.651,63.709 192.626,63.707 192.599,63.707 L192.392,63.707 L192.392,64.016 L192.585,64.016 C192.616,64.016 192.648,64.015 192.677,64.012 C192.707,64.009 192.733,64.002 192.754,63.991 ZM189.084,36.212 C188.619,36.510 188.085,36.717 187.487,36.838 C186.889,36.957 186.279,37.017 185.660,37.017 C185.027,37.017 184.405,36.955 183.801,36.826 C183.196,36.699 182.655,36.488 182.185,36.191 C181.712,35.894 181.326,35.502 181.022,35.014 C180.719,34.527 180.554,33.916 180.526,33.183 L183.377,33.183 C183.377,33.507 183.446,33.786 183.578,34.020 C183.713,34.252 183.886,34.443 184.096,34.591 C184.308,34.741 184.550,34.849 184.826,34.919 C185.099,34.990 185.385,35.026 185.681,35.026 C185.893,35.026 186.114,35.002 186.347,34.950 C186.579,34.902 186.790,34.825 186.981,34.717 C187.170,34.612 187.330,34.471 187.455,34.294 C187.583,34.118 187.647,33.895 187.647,33.626 C187.647,33.175 187.346,32.836 186.749,32.610 C186.150,32.382 185.315,32.157 184.244,31.931 C183.807,31.834 183.382,31.717 182.967,31.581 C182.550,31.447 182.181,31.271 181.857,31.052 C181.531,30.833 181.273,30.557 181.076,30.225 C180.877,29.894 180.780,29.487 180.780,29.007 C180.780,28.300 180.917,27.720 181.190,27.269 C181.466,26.817 181.828,26.460 182.280,26.198 C182.730,25.937 183.237,25.755 183.801,25.647 C184.365,25.542 184.941,25.489 185.532,25.489 C186.125,25.489 186.699,25.546 187.254,25.658 C187.812,25.771 188.309,25.961 188.744,26.230 C189.182,26.500 189.544,26.855 189.833,27.301 C190.121,27.745 190.294,28.308 190.349,28.985 L187.498,28.985 C187.455,28.408 187.237,28.014 186.844,27.809 C186.447,27.603 185.983,27.502 185.448,27.502 C185.280,27.502 185.095,27.514 184.899,27.534 C184.702,27.555 184.522,27.601 184.361,27.671 C184.200,27.744 184.060,27.845 183.948,27.978 C183.835,28.114 183.779,28.294 183.779,28.520 C183.779,28.787 183.879,29.007 184.075,29.177 C184.272,29.346 184.529,29.484 184.846,29.589 C185.163,29.696 185.525,29.790 185.934,29.875 C186.343,29.961 186.760,30.052 187.182,30.151 C187.617,30.251 188.044,30.369 188.459,30.511 C188.875,30.653 189.245,30.840 189.569,31.073 C189.891,31.307 190.153,31.596 190.349,31.943 C190.548,32.288 190.646,32.716 190.646,33.225 C190.646,33.944 190.502,34.549 190.212,35.036 C189.924,35.524 189.546,35.916 189.084,36.212 ZM177.504,56.028 C177.447,55.859 177.403,55.687 177.367,55.510 C177.332,55.332 177.307,55.153 177.294,54.970 C176.813,55.464 176.251,55.811 175.604,56.008 C174.955,56.205 174.293,56.304 173.617,56.304 C173.096,56.304 172.611,56.242 172.161,56.113 C171.708,55.986 171.314,55.788 170.977,55.520 C170.638,55.251 170.374,54.912 170.184,54.503 C169.992,54.093 169.898,53.607 169.898,53.041 C169.898,52.418 170.008,51.907 170.226,51.504 C170.443,51.101 170.726,50.779 171.071,50.541 C171.416,50.300 171.811,50.118 172.254,49.999 C172.699,49.881 173.144,49.784 173.597,49.713 C174.047,49.643 174.489,49.587 174.926,49.543 C175.364,49.503 175.752,49.438 176.090,49.354 C176.427,49.269 176.695,49.144 176.892,48.982 C177.090,48.819 177.181,48.584 177.166,48.272 C177.166,47.948 177.113,47.690 177.009,47.498 C176.902,47.308 176.761,47.159 176.587,47.055 C176.411,46.947 176.206,46.877 175.973,46.842 C175.740,46.805 175.492,46.789 175.223,46.789 C174.632,46.789 174.167,46.915 173.830,47.171 C173.489,47.425 173.293,47.848 173.237,48.440 L170.236,48.440 C170.279,47.736 170.455,47.148 170.764,46.684 C171.074,46.218 171.470,45.843 171.948,45.560 C172.426,45.276 172.964,45.075 173.565,44.956 C174.163,44.835 174.765,44.776 175.372,44.776 C175.921,44.776 176.476,44.815 177.041,44.893 C177.604,44.969 178.118,45.121 178.582,45.347 C179.048,45.574 179.429,45.887 179.724,46.290 C180.020,46.693 180.168,47.226 180.168,47.892 L180.168,53.592 C180.168,54.087 180.195,54.559 180.252,55.011 C180.308,55.464 180.407,55.803 180.548,56.028 L177.504,56.028 ZM177.166,50.666 C177.041,50.779 176.881,50.868 176.692,50.932 C176.500,50.995 176.298,51.048 176.078,51.089 C175.861,51.133 175.632,51.169 175.393,51.197 C175.152,51.225 174.914,51.261 174.674,51.302 C174.448,51.346 174.227,51.403 174.007,51.472 C173.789,51.544 173.599,51.639 173.437,51.758 C173.276,51.878 173.144,52.031 173.047,52.214 C172.948,52.398 172.899,52.630 172.899,52.912 C172.899,53.182 172.948,53.408 173.047,53.592 C173.144,53.775 173.279,53.920 173.449,54.027 C173.617,54.133 173.814,54.205 174.039,54.249 C174.265,54.289 174.497,54.313 174.737,54.313 C175.328,54.313 175.786,54.213 176.110,54.016 C176.435,53.818 176.673,53.581 176.829,53.306 C176.985,53.030 177.078,52.751 177.113,52.469 C177.149,52.187 177.166,51.959 177.166,51.789 L177.166,50.666 ZM176.681,35.344 L176.638,35.344 C176.286,35.938 175.824,36.364 175.252,36.625 C174.683,36.887 174.039,37.017 173.321,37.017 C172.503,37.017 171.785,36.859 171.166,36.541 C170.545,36.224 170.035,35.793 169.634,35.247 C169.231,34.704 168.930,34.080 168.725,33.372 C168.521,32.667 168.418,31.931 168.418,31.169 C168.418,30.434 168.521,29.725 168.725,29.040 C168.930,28.352 169.231,27.749 169.634,27.225 C170.035,26.705 170.539,26.283 171.145,25.964 C171.749,25.647 172.454,25.489 173.257,25.489 C173.904,25.489 174.522,25.626 175.107,25.900 C175.691,26.178 176.152,26.584 176.489,27.121 L176.532,27.121 L176.532,21.611 L179.532,21.611 L179.532,36.743 L176.681,36.743 L176.681,35.344 ZM176.511,29.929 C176.427,29.511 176.282,29.145 176.078,28.827 C175.874,28.509 175.609,28.251 175.285,28.054 C174.961,27.856 174.553,27.756 174.060,27.756 C173.567,27.756 173.152,27.856 172.813,28.054 C172.475,28.251 172.202,28.513 172.001,28.838 C171.796,29.162 171.648,29.532 171.555,29.950 C171.464,30.365 171.419,30.800 171.419,31.254 C171.419,31.677 171.468,32.101 171.568,32.524 C171.665,32.949 171.823,33.327 172.042,33.659 C172.261,33.992 172.535,34.258 172.867,34.463 C173.197,34.670 173.595,34.771 174.060,34.771 C174.553,34.771 174.964,34.673 175.296,34.475 C175.627,34.278 175.890,34.012 176.087,33.678 C176.286,33.348 176.427,32.970 176.511,32.546 C176.596,32.121 176.638,31.685 176.638,31.231 C176.638,30.780 176.596,30.346 176.511,29.929 ZM168.736,48.697 L168.736,56.028 L165.734,56.028 L165.734,49.819 C165.734,49.451 165.721,49.108 165.693,48.782 C165.665,48.456 165.589,48.173 165.461,47.933 C165.333,47.694 165.148,47.503 164.900,47.361 C164.655,47.220 164.320,47.148 163.896,47.148 C163.474,47.148 163.133,47.231 162.872,47.393 C162.611,47.555 162.407,47.767 162.259,48.029 C162.113,48.291 162.014,48.588 161.964,48.919 C161.914,49.250 161.890,49.587 161.890,49.925 L161.890,56.028 L158.890,56.028 L158.890,49.882 C158.890,49.558 158.883,49.236 158.869,48.919 C158.854,48.601 158.794,48.307 158.689,48.038 C158.584,47.771 158.408,47.555 158.161,47.393 C157.915,47.231 157.550,47.148 157.073,47.148 C156.932,47.148 156.746,47.180 156.514,47.245 C156.280,47.308 156.056,47.428 155.836,47.605 C155.618,47.783 155.432,48.036 155.277,48.368 C155.121,48.701 155.044,49.135 155.044,49.671 L155.044,56.028 L152.043,56.028 L152.043,45.073 L154.876,45.073 L154.876,46.556 L154.917,46.556 C155.311,45.992 155.787,45.552 156.344,45.241 C156.899,44.931 157.538,44.776 158.256,44.776 C158.946,44.776 159.577,44.910 160.147,45.179 C160.717,45.447 161.150,45.920 161.447,46.599 C161.769,46.117 162.210,45.694 162.768,45.326 C163.322,44.958 163.981,44.776 164.742,44.776 C165.321,44.776 165.855,44.845 166.348,44.986 C166.841,45.129 167.264,45.355 167.616,45.666 C167.968,45.976 168.242,46.383 168.440,46.885 C168.637,47.385 168.736,47.989 168.736,48.697 ZM164.341,30.554 C164.341,29.649 164.201,28.975 163.920,28.529 C163.635,28.086 163.137,27.862 162.418,27.862 C161.600,27.862 161.010,28.107 160.644,28.593 C160.277,29.080 160.095,29.882 160.095,30.998 L160.095,36.743 L157.092,36.743 L157.092,25.786 L159.946,25.786 L159.946,27.311 L160.010,27.311 C160.388,26.676 160.882,26.214 161.488,25.924 C162.094,25.634 162.713,25.489 163.346,25.489 C164.149,25.489 164.809,25.598 165.324,25.816 C165.838,26.037 166.243,26.339 166.538,26.729 C166.834,27.116 167.042,27.591 167.162,28.148 C167.281,28.706 167.342,29.326 167.342,30.002 L167.342,36.743 L164.341,36.743 L164.341,30.554 ZM162.101,16.683 C161.637,16.683 161.197,16.651 160.781,16.588 C160.367,16.524 160.000,16.401 159.683,16.218 C159.368,16.033 159.115,15.772 158.933,15.434 C158.750,15.095 158.658,14.648 158.658,14.098 L158.658,7.635 L156.842,7.635 L156.842,5.621 L158.658,5.621 L158.658,2.336 L161.659,2.336 L161.659,5.621 L163.855,5.621 L163.855,7.635 L161.659,7.635 L161.659,13.059 C161.659,13.569 161.743,13.907 161.912,14.077 C162.081,14.246 162.418,14.330 162.928,14.330 C163.096,14.330 163.257,14.323 163.413,14.310 C163.566,14.294 163.715,14.275 163.855,14.246 L163.855,16.578 C163.602,16.620 163.321,16.647 163.011,16.662 C162.700,16.676 162.397,16.683 162.101,16.683 ZM151.041,9.424 C151.359,9.531 151.720,9.625 152.130,9.710 C152.538,9.796 152.955,9.887 153.377,9.986 C153.812,10.087 154.240,10.205 154.655,10.346 C155.071,10.489 155.441,10.675 155.765,10.908 C156.088,11.142 156.348,11.431 156.545,11.778 C156.742,12.123 156.842,12.551 156.842,13.059 C156.842,13.780 156.697,14.384 156.409,14.872 C156.119,15.359 155.742,15.751 155.279,16.047 C154.814,16.345 154.281,16.552 153.682,16.673 C153.084,16.793 152.475,16.852 151.856,16.852 C151.221,16.852 150.600,16.790 149.998,16.662 C149.390,16.535 148.850,16.323 148.379,16.026 C147.907,15.729 147.521,15.337 147.217,14.850 C146.914,14.363 146.749,13.751 146.721,13.018 L149.573,13.018 C149.573,13.342 149.640,13.622 149.774,13.855 C149.908,14.087 150.081,14.278 150.292,14.426 C150.503,14.576 150.745,14.684 151.021,14.754 C151.295,14.826 151.580,14.862 151.876,14.862 C152.088,14.862 152.309,14.837 152.542,14.787 C152.775,14.737 152.985,14.660 153.177,14.552 C153.365,14.447 153.525,14.306 153.651,14.129 C153.778,13.953 153.842,13.731 153.842,13.462 C153.842,13.010 153.542,12.672 152.944,12.445 C152.345,12.219 151.511,11.992 150.439,11.766 C150.002,11.669 149.577,11.552 149.162,11.416 C148.746,11.283 148.375,11.106 148.051,10.888 C147.727,10.668 147.468,10.393 147.271,10.060 C147.071,9.729 146.974,9.322 146.974,8.843 C146.974,8.135 147.111,7.555 147.386,7.104 C147.661,6.653 148.023,6.295 148.475,6.034 C148.925,5.772 149.432,5.590 149.998,5.483 C150.560,5.378 151.136,5.325 151.728,5.325 C152.321,5.325 152.895,5.381 153.450,5.494 C154.008,5.607 154.504,5.797 154.940,6.066 C155.376,6.335 155.738,6.690 156.028,7.136 C156.316,7.580 156.489,8.143 156.545,8.820 L153.693,8.820 C153.651,8.243 153.434,7.849 153.039,7.644 C152.643,7.440 152.178,7.338 151.644,7.338 C151.475,7.338 151.291,7.349 151.094,7.369 C150.897,7.390 150.717,7.438 150.556,7.507 C150.394,7.579 150.255,7.680 150.143,7.813 C150.031,7.949 149.974,8.130 149.974,8.356 C149.974,8.623 150.073,8.843 150.271,9.012 C150.467,9.182 150.725,9.319 151.041,9.424 ZM150.755,25.489 C151.685,25.489 152.495,25.669 153.185,26.029 C153.876,26.391 154.442,26.873 154.884,27.482 C155.329,28.089 155.650,28.782 155.847,29.559 C156.044,30.336 156.115,31.146 156.059,31.995 L148.177,31.995 C148.220,32.970 148.466,33.677 148.916,34.114 C149.368,34.552 150.015,34.771 150.862,34.771 C151.466,34.771 151.987,34.620 152.424,34.315 C152.861,34.012 153.129,33.690 153.227,33.351 L155.869,33.351 C155.445,34.664 154.797,35.606 153.924,36.170 C153.050,36.734 151.994,37.017 150.755,37.017 C149.895,37.017 149.120,36.880 148.430,36.604 C147.740,36.328 147.157,35.938 146.676,35.429 C146.199,34.919 145.829,34.313 145.568,33.606 C145.307,32.901 145.177,32.121 145.177,31.274 C145.177,30.454 145.311,29.692 145.580,28.985 C145.845,28.279 146.226,27.667 146.720,27.153 C147.213,26.637 147.799,26.230 148.482,25.933 C149.167,25.637 149.923,25.489 150.755,25.489 ZM148.177,30.087 L153.058,30.087 C152.917,29.326 152.668,28.746 152.307,28.349 C151.949,27.953 151.404,27.756 150.670,27.756 C150.192,27.756 149.793,27.837 149.477,28.001 C149.160,28.162 148.907,28.364 148.715,28.605 C148.526,28.843 148.391,29.100 148.314,29.367 C148.237,29.636 148.192,29.875 148.177,30.087 ZM139.072,13.950 C139.524,14.387 140.171,14.606 141.017,14.606 C141.621,14.606 142.142,14.455 142.580,14.150 C143.016,13.847 143.285,13.525 143.382,13.187 L146.023,13.187 C145.601,14.500 144.952,15.441 144.080,16.006 C143.206,16.571 142.150,16.852 140.910,16.852 C140.051,16.852 139.277,16.715 138.586,16.440 C137.896,16.164 137.312,15.772 136.832,15.264 C136.353,14.754 135.983,14.148 135.724,13.441 C135.462,12.736 135.333,11.956 135.333,11.109 C135.333,10.289 135.466,9.527 135.734,8.820 C136.000,8.115 136.381,7.503 136.875,6.988 C137.368,6.472 137.956,6.066 138.638,5.769 C139.322,5.474 140.079,5.325 140.910,5.325 C141.840,5.325 142.651,5.505 143.341,5.865 C144.031,6.226 144.598,6.709 145.041,7.317 C145.485,7.925 145.806,8.617 146.002,9.394 C146.200,10.171 146.271,10.981 146.215,11.830 L138.333,11.830 C138.377,12.805 138.622,13.513 139.072,13.950 ZM143.213,9.923 C143.073,9.161 142.823,8.581 142.463,8.184 C142.105,7.789 141.559,7.591 140.825,7.591 C140.347,7.591 139.950,7.673 139.633,7.836 C139.314,7.998 139.063,8.200 138.872,8.440 C138.682,8.678 138.549,8.935 138.470,9.202 C138.393,9.471 138.347,9.710 138.333,9.923 L143.213,9.923 ZM133.039,15.538 C132.538,15.893 131.968,16.154 131.328,16.323 C130.687,16.492 130.028,16.578 129.353,16.578 L122.041,16.578 L122.041,1.446 L129.141,1.446 C129.859,1.446 130.514,1.508 131.104,1.636 C131.698,1.763 132.204,1.972 132.627,2.261 C133.050,2.551 133.377,2.936 133.610,3.417 C133.842,3.896 133.958,4.491 133.958,5.197 C133.958,5.961 133.785,6.596 133.440,7.104 C133.094,7.612 132.585,8.030 131.909,8.356 C132.838,8.623 133.532,9.093 133.991,9.764 C134.448,10.434 134.677,11.243 134.677,12.189 C134.677,12.954 134.529,13.614 134.233,14.173 C133.937,14.730 133.540,15.186 133.039,15.538 ZM130.557,4.901 C130.429,4.675 130.261,4.498 130.048,4.370 C129.839,4.242 129.594,4.155 129.321,4.105 C129.045,4.055 128.760,4.031 128.463,4.031 L125.360,4.031 L125.360,7.571 L128.720,7.571 C129.310,7.571 129.796,7.430 130.176,7.148 C130.557,6.863 130.746,6.404 130.746,5.769 C130.746,5.416 130.682,5.126 130.557,4.901 ZM130.703,10.337 C130.268,10.004 129.690,9.838 128.972,9.838 L125.360,9.838 L125.360,13.992 L128.908,13.992 C129.233,13.992 129.543,13.960 129.839,13.896 C130.133,13.832 130.394,13.726 130.619,13.578 C130.843,13.429 131.024,13.228 131.159,12.974 C131.293,12.720 131.360,12.395 131.360,11.999 C131.360,11.223 131.140,10.668 130.703,10.337 ZM122.041,36.743 L122.041,21.611 L132.648,21.611 L132.648,24.407 L125.360,24.407 L125.360,27.906 L131.677,27.906 L131.677,30.490 L125.360,30.490 L125.360,36.743 L122.041,36.743 ZM129.562,40.898 L135.205,56.028 L131.761,56.028 L130.619,52.659 L124.979,52.659 L123.795,56.028 L120.456,56.028 L126.162,40.898 L129.562,40.898 ZM129.754,50.179 L127.852,44.627 L127.809,44.627 L125.845,50.179 L129.754,50.179 ZM103.697,-0.001 L105.443,-0.001 L105.443,76.450 L103.697,76.450 L103.697,-0.001 ZM45.229,69.080 C29.374,76.147 9.687,72.733 0.000,55.688 L9.202,49.080 C14.423,57.956 23.078,63.938 33.981,61.581 C27.238,55.151 22.438,45.714 21.953,31.841 C27.930,27.564 36.481,24.801 45.231,24.794 C53.978,24.801 62.528,27.564 68.506,31.841 C68.019,45.715 63.216,55.159 56.470,61.587 C67.525,63.981 76.274,57.798 81.462,48.719 L90.665,55.330 C81.057,72.687 61.198,76.199 45.229,69.080 ZM45.231,34.966 C41.080,34.966 37.038,35.943 35.030,37.150 C36.133,46.826 41.258,53.007 45.231,56.260 C49.199,53.007 54.324,46.826 55.430,37.147 C53.418,35.943 49.379,34.966 45.231,34.966 ZM65.768,17.047 C61.698,17.047 58.397,13.307 58.397,8.691 C58.397,4.076 61.698,0.333 65.768,0.333 C69.837,0.333 73.139,4.076 73.139,8.691 C73.139,13.307 69.837,17.047 65.768,17.047 ZM24.689,17.047 C20.616,17.047 17.318,13.307 17.318,8.691 C17.318,4.076 20.616,0.333 24.689,0.333 C28.759,0.333 32.061,4.076 32.061,8.691 C32.061,13.307 28.759,17.047 24.689,17.047 ZM124.577,72.465 C124.759,72.816 125.003,73.102 125.306,73.322 C125.608,73.540 125.963,73.701 126.372,73.809 C126.781,73.915 127.203,73.967 127.640,73.967 C127.937,73.967 128.253,73.943 128.592,73.894 C128.929,73.845 129.246,73.749 129.543,73.608 C129.839,73.467 130.084,73.273 130.281,73.025 C130.478,72.778 130.578,72.465 130.578,72.082 C130.578,71.672 130.446,71.341 130.185,71.086 C129.924,70.831 129.584,70.620 129.161,70.449 C128.739,70.280 128.262,70.131 127.725,70.005 C127.190,69.877 126.648,69.736 126.098,69.582 C125.533,69.441 124.985,69.268 124.449,69.063 C123.915,68.858 123.436,68.592 123.013,68.267 C122.590,67.943 122.250,67.537 121.989,67.050 C121.728,66.563 121.598,65.972 121.598,65.279 C121.598,64.501 121.763,63.826 122.094,63.255 C122.425,62.683 122.858,62.206 123.394,61.824 C123.928,61.443 124.534,61.160 125.211,60.976 C125.886,60.793 126.564,60.701 127.239,60.701 C128.028,60.701 128.784,60.789 129.510,60.966 C130.236,61.143 130.880,61.429 131.445,61.824 C132.007,62.218 132.454,62.726 132.786,63.340 C133.116,63.954 133.282,64.700 133.282,65.577 L130.071,65.577 C130.041,65.123 129.948,64.748 129.784,64.454 C129.623,64.156 129.408,63.921 129.141,63.752 C128.872,63.583 128.567,63.462 128.221,63.393 C127.877,63.322 127.499,63.286 127.090,63.286 C126.825,63.286 126.556,63.315 126.287,63.372 C126.021,63.428 125.778,63.527 125.560,63.669 C125.341,63.810 125.160,63.985 125.020,64.199 C124.879,64.409 124.810,64.678 124.810,65.003 C124.810,65.299 124.867,65.541 124.979,65.724 C125.091,65.907 125.312,66.077 125.643,66.234 C125.975,66.390 126.433,66.543 127.017,66.700 C127.600,66.854 128.366,67.054 129.310,67.292 C129.591,67.349 129.983,67.452 130.481,67.599 C130.983,67.748 131.478,67.984 131.971,68.310 C132.465,68.636 132.890,69.071 133.251,69.614 C133.610,70.157 133.789,70.852 133.789,71.700 C133.789,72.393 133.655,73.036 133.387,73.629 C133.119,74.222 132.722,74.735 132.195,75.166 C131.666,75.597 131.012,75.932 130.229,76.173 C129.447,76.412 128.542,76.533 127.515,76.533 C126.681,76.533 125.877,76.430 125.095,76.225 C124.312,76.020 123.623,75.698 123.023,75.261 C122.425,74.824 121.949,74.264 121.598,73.588 C121.245,72.909 121.076,72.103 121.090,71.170 L124.301,71.170 C124.301,71.680 124.393,72.111 124.577,72.465 ZM135.902,66.519 C136.395,66.018 136.986,65.629 137.676,65.352 C138.366,65.078 139.142,64.940 140.003,64.940 C140.859,64.940 141.638,65.078 142.335,65.352 C143.033,65.629 143.628,66.018 144.121,66.519 C144.614,67.022 144.995,67.628 145.262,68.343 C145.530,69.055 145.663,69.849 145.663,70.726 C145.663,71.603 145.530,72.393 145.262,73.099 C144.995,73.805 144.614,74.410 144.121,74.912 C143.628,75.412 143.033,75.798 142.335,76.066 C141.638,76.334 140.859,76.468 140.003,76.468 C139.142,76.468 138.366,76.334 137.676,76.066 C136.986,75.798 136.395,75.412 135.902,74.912 C135.408,74.410 135.028,73.805 134.760,73.099 C134.493,72.393 134.359,71.603 134.359,70.726 C134.359,69.849 134.493,69.055 134.760,68.343 C135.028,67.628 135.408,67.022 135.902,66.519 ZM137.486,72.007 C137.571,72.425 137.716,72.800 137.920,73.130 C138.125,73.464 138.394,73.728 138.734,73.926 C139.072,74.124 139.494,74.222 140.003,74.222 C140.509,74.222 140.935,74.124 141.279,73.926 C141.625,73.728 141.898,73.464 142.103,73.130 C142.307,72.800 142.452,72.425 142.537,72.007 C142.620,71.591 142.664,71.165 142.664,70.726 C142.664,70.287 142.620,69.857 142.537,69.433 C142.452,69.010 142.307,68.636 142.103,68.310 C141.898,67.984 141.625,67.720 141.279,67.514 C140.935,67.311 140.509,67.207 140.003,67.207 C139.494,67.207 139.072,67.311 138.734,67.514 C138.394,67.720 138.125,67.984 137.920,68.310 C137.716,68.636 137.571,69.010 137.486,69.433 C137.402,69.857 137.360,70.287 137.360,70.726 C137.360,71.165 137.402,71.591 137.486,72.007 ZM133.514,36.743 L133.514,25.786 L136.367,25.786 L136.367,27.820 L136.407,27.820 C136.549,27.482 136.740,27.167 136.980,26.878 C137.218,26.587 137.495,26.339 137.804,26.135 C138.113,25.931 138.444,25.771 138.796,25.658 C139.148,25.546 139.514,25.489 139.895,25.489 C140.092,25.489 140.309,25.525 140.550,25.595 L140.550,28.392 C140.409,28.364 140.240,28.340 140.043,28.319 C139.847,28.296 139.655,28.287 139.473,28.287 C138.923,28.287 138.459,28.379 138.077,28.561 C137.699,28.746 137.391,28.997 137.158,29.314 C136.925,29.632 136.761,30.002 136.663,30.426 C136.563,30.851 136.515,31.310 136.515,31.803 L136.515,36.743 L133.514,36.743 ZM145.528,47.435 C145.646,47.993 145.707,48.613 145.707,49.289 L145.707,56.028 L142.707,56.028 L142.707,49.841 C142.707,48.935 142.566,48.262 142.285,47.816 C142.002,47.372 141.503,47.148 140.785,47.148 C139.967,47.148 139.376,47.393 139.010,47.880 C138.642,48.368 138.460,49.168 138.460,50.284 L138.460,56.028 L135.458,56.028 L135.458,45.073 L138.312,45.073 L138.312,46.599 L138.377,46.599 C138.755,45.963 139.248,45.499 139.854,45.211 C140.460,44.921 141.079,44.776 141.712,44.776 C142.516,44.776 143.174,44.885 143.690,45.103 C144.205,45.322 144.610,45.627 144.904,46.016 C145.200,46.403 145.408,46.877 145.528,47.435 ZM141.079,21.611 L144.080,21.611 L144.080,24.089 L141.079,24.089 L141.079,21.611 ZM144.080,36.743 L141.079,36.743 L141.079,25.786 L144.080,25.786 L144.080,36.743 ZM147.333,40.898 L150.335,40.898 L150.335,43.376 L147.333,43.376 L147.333,40.898 ZM150.335,56.028 L147.333,56.028 L147.333,45.073 L150.335,45.073 L150.335,56.028 ZM147.987,66.624 C148.466,66.096 149.052,65.682 149.742,65.385 C150.432,65.089 151.221,64.940 152.109,64.940 C152.756,64.940 153.379,65.025 153.979,65.195 C154.578,65.363 155.112,65.621 155.584,65.968 C156.056,66.314 156.440,66.744 156.737,67.260 C157.030,67.776 157.199,68.387 157.243,69.095 L154.306,69.095 C154.108,67.836 153.370,67.207 152.086,67.207 C151.608,67.207 151.207,67.317 150.882,67.537 C150.560,67.755 150.295,68.037 150.090,68.383 C149.886,68.730 149.742,69.112 149.657,69.527 C149.573,69.945 149.531,70.359 149.531,70.767 C149.531,71.165 149.573,71.567 149.657,71.976 C149.742,72.385 149.879,72.755 150.070,73.089 C150.260,73.421 150.516,73.693 150.840,73.903 C151.164,74.116 151.559,74.222 152.025,74.222 C152.744,74.222 153.293,74.021 153.682,73.618 C154.069,73.214 154.313,72.675 154.412,71.997 L157.307,71.997 C157.108,73.452 156.545,74.562 155.616,75.325 C154.686,76.088 153.495,76.468 152.045,76.468 C151.227,76.468 150.476,76.331 149.793,76.056 C149.111,75.780 148.530,75.396 148.051,74.901 C147.574,74.407 147.199,73.817 146.932,73.130 C146.663,72.446 146.530,71.693 146.530,70.874 C146.530,70.025 146.653,69.239 146.900,68.511 C147.145,67.783 147.510,67.155 147.987,66.624 ZM161.340,63.541 L158.339,63.541 L158.339,61.062 L161.340,61.062 L161.340,63.541 ZM161.340,76.193 L158.339,76.193 L158.339,65.237 L161.340,65.237 L161.340,76.193 ZM163.981,66.604 C164.475,66.088 165.062,65.682 165.745,65.385 C166.430,65.089 167.185,64.940 168.016,64.940 C168.947,64.940 169.757,65.120 170.447,65.481 C171.139,65.841 171.704,66.324 172.146,66.932 C172.592,67.541 172.912,68.234 173.109,69.010 C173.306,69.787 173.377,70.598 173.321,71.447 L165.438,71.447 C165.483,72.421 165.728,73.129 166.178,73.565 C166.631,74.003 167.277,74.222 168.123,74.222 C168.727,74.222 169.248,74.071 169.686,73.766 C170.122,73.464 170.391,73.141 170.488,72.803 L173.129,72.803 C172.708,74.116 172.059,75.057 171.186,75.622 C170.312,76.186 169.256,76.468 168.016,76.468 C167.157,76.468 166.382,76.331 165.692,76.056 C165.002,75.780 164.417,75.388 163.938,74.880 C163.459,74.371 163.090,73.764 162.829,73.057 C162.568,72.351 162.439,71.572 162.439,70.726 C162.439,69.905 162.573,69.143 162.840,68.436 C163.106,67.730 163.489,67.119 163.981,66.604 ZM170.320,69.538 C170.178,68.777 169.930,68.198 169.570,67.801 C169.211,67.404 168.665,67.207 167.932,67.207 C167.454,67.207 167.056,67.289 166.739,67.452 C166.421,67.614 166.168,67.816 165.977,68.055 C165.787,68.295 165.654,68.551 165.576,68.818 C165.499,69.087 165.454,69.326 165.438,69.538 L170.320,69.538 ZM175.157,61.952 L178.159,61.952 L178.159,65.237 L180.355,65.237 L180.355,67.251 L178.159,67.251 L178.159,72.675 C178.159,73.185 178.244,73.523 178.413,73.693 C178.581,73.862 178.918,73.947 179.427,73.947 C179.596,73.947 179.758,73.939 179.913,73.926 C180.066,73.911 180.215,73.890 180.355,73.862 L180.355,76.193 C180.102,76.236 179.821,76.263 179.510,76.278 C179.200,76.291 178.898,76.299 178.602,76.299 C178.137,76.299 177.696,76.267 177.281,76.205 C176.867,76.142 176.500,76.017 176.183,75.834 C175.867,75.650 175.615,75.388 175.433,75.049 C175.249,74.711 175.157,74.264 175.157,73.714 L175.157,67.251 L173.341,67.251 L173.341,65.237 L175.157,65.237 L175.157,61.952 ZM181.835,40.898 L184.837,40.898 L184.837,56.028 L181.835,56.028 L181.835,40.898 ZM180.683,65.237 L183.874,65.237 L186.344,72.739 L186.387,72.739 L188.775,65.237 L191.882,65.237 L187.318,77.551 C186.993,78.440 186.543,79.076 185.966,79.459 C185.388,79.838 184.585,80.030 183.557,80.030 C183.246,80.030 182.939,80.019 182.637,79.998 C182.334,79.976 182.028,79.951 181.718,79.923 L181.718,77.445 C182.000,77.473 182.289,77.500 182.582,77.529 C182.880,77.558 183.176,77.563 183.473,77.551 C183.867,77.507 184.160,77.353 184.348,77.084 C184.538,76.815 184.634,76.519 184.634,76.193 C184.634,75.953 184.593,75.726 184.506,75.516 L180.683,65.237 Z" class="cls-1"/>
</svg>
