<?xml version="1.0" encoding="UTF-8"?>
<svg width="95px" height="40px" viewBox="0 0 95 40" version="1.1" xmlns="http://www.w3.org/2000/svg" xmlns:xlink="http://www.w3.org/1999/xlink">
    <!-- Generator: Sketch 50.2 (55047) - http://www.bohemiancoding.com/sketch -->
    <title>bfas_logo_white copy</title>
    <desc>Created with Sketch.</desc>
    <defs></defs>
    <g id="Page-14:-Hi-Fi-Version-4" stroke="none" stroke-width="1" fill="none" fill-rule="evenodd">
        <g id="bfas_logo_white-copy" fill="#FFFFFF">
            <path d="M94.357561,31.9312195 C94.3326829,31.9878049 94.3,32.0370732 94.2585366,32.0770732 C94.2165854,32.117561 94.1682927,32.1492683 94.1136585,32.1717073 C94.0585366,32.1941463 94.0014634,32.2053659 93.9414634,32.2053659 C93.8741463,32.2053659 93.8131707,32.1926829 93.7570732,32.1692683 C93.7014634,32.1458537 93.6536585,32.1141463 93.6141463,32.0721951 C93.5741463,32.0312195 93.5429268,31.9819512 93.52,31.924878 C93.497561,31.8682927 93.4858537,31.8073171 93.4858537,31.7409756 C93.4858537,31.6717073 93.4980488,31.6087805 93.522439,31.5512195 C93.5468293,31.4941463 93.58,31.4458537 93.6214634,31.404878 C93.6629268,31.3643902 93.7117073,31.3331707 93.7663415,31.3107317 C93.8219512,31.2878049 93.88,31.2770732 93.9414634,31.2770732 C94.0014634,31.2770732 94.0585366,31.2878049 94.1136585,31.3107317 C94.1682927,31.3331707 94.2165854,31.3643902 94.2585366,31.404878 C94.3,31.4458537 94.3326829,31.4941463 94.357561,31.5512195 C94.3814634,31.6087805 94.3941463,31.6717073 94.3941463,31.7409756 C94.3941463,31.8102439 94.3814634,31.8736585 94.357561,31.9312195 Z M94.2678049,31.5858537 C94.2497561,31.5385366 94.2243902,31.4980488 94.1926829,31.4643902 C94.16,31.4302439 94.122439,31.4039024 94.0795122,31.3853659 C94.0365854,31.3673171 93.9912195,31.357561 93.9414634,31.357561 C93.8912195,31.357561 93.8443902,31.3673171 93.8009756,31.3853659 C93.7570732,31.4039024 93.7195122,31.4302439 93.6873171,31.4643902 C93.655122,31.4980488 93.6302439,31.5385366 93.6117073,31.5858537 C93.5941463,31.6331707 93.584878,31.684878 93.584878,31.7409756 C93.584878,31.7941463 93.5926829,31.8434146 93.6092683,31.8897561 C93.6258537,31.9360976 93.6502439,31.9765854 93.6809756,32.0112195 C93.7117073,32.0463415 93.7487805,32.0741463 93.7926829,32.0941463 C93.8365854,32.1141463 93.8858537,32.1239024 93.9414634,32.1239024 C93.9912195,32.1239024 94.0365854,32.115122 94.0795122,32.0965854 C94.122439,32.0780488 94.16,32.0517073 94.1926829,32.0180488 C94.2243902,31.9839024 94.2497561,31.9434146 94.2678049,31.8965854 C94.2853659,31.8502439 94.295122,31.7980488 94.295122,31.7409756 C94.295122,31.684878 94.2853659,31.6331707 94.2678049,31.5858537 Z M94.0609756,32.0068293 L93.9287805,31.7868293 L93.8497561,31.7868293 L93.8497561,32.0068293 L93.7653659,32.0068293 L93.7653659,31.4926829 L93.96,31.4926829 C94.0214634,31.4926829 94.0678049,31.504878 94.0995122,31.5273171 C94.1307317,31.5507317 94.1463415,31.5882927 94.1463415,31.6409756 C94.1463415,31.6873171 94.1341463,31.7204878 94.1082927,31.742439 C94.0819512,31.7639024 94.0507317,31.7765854 94.0126829,31.7804878 L94.1565854,32.0068293 L94.0609756,32.0068293 Z M94.0263415,31.7029268 C94.0370732,31.6970732 94.0458537,31.6887805 94.0521951,31.6780488 C94.0585366,31.6678049 94.062439,31.6531707 94.062439,31.6341463 C94.062439,31.6185366 94.0585366,31.6063415 94.0517073,31.5970732 C94.044878,31.5878049 94.0360976,31.5809756 94.024878,31.5760976 C94.0141463,31.5707317 94.0034146,31.5678049 93.9892683,31.5668293 C93.9760976,31.5653659 93.9639024,31.5643902 93.9507317,31.5643902 L93.8497561,31.5643902 L93.8497561,31.715122 L93.9439024,31.715122 C93.9590244,31.715122 93.9746341,31.7146341 93.9887805,31.7131707 C94.0034146,31.7117073 94.0160976,31.7082927 94.0263415,31.7029268 Z M92.2360976,18.1521951 C92.0092683,18.297561 91.7487805,18.3985366 91.4570732,18.457561 C91.1653659,18.5156098 90.8678049,18.544878 90.5658537,18.544878 C90.2570732,18.544878 89.9536585,18.5146341 89.6590244,18.4517073 C89.3639024,18.3897561 89.1,18.2868293 88.8707317,18.1419512 C88.64,17.9970732 88.4517073,17.8058537 88.3034146,17.5678049 C88.1556098,17.3302439 88.075122,17.0321951 88.0614634,16.6746341 L89.4521951,16.6746341 C89.4521951,16.8326829 89.4858537,16.9687805 89.5502439,17.0829268 C89.6160976,17.1960976 89.7004878,17.2892683 89.8029268,17.3614634 C89.9063415,17.4346341 90.0243902,17.4873171 90.1590244,17.5214634 C90.2921951,17.5560976 90.4317073,17.5736585 90.5760976,17.5736585 C90.6795122,17.5736585 90.7873171,17.5619512 90.9009756,17.5365854 C91.0141463,17.5131707 91.1170732,17.4756098 91.2102439,17.4229268 C91.302439,17.3717073 91.3804878,17.3029268 91.4414634,17.2165854 C91.5039024,17.1307317 91.535122,17.0219512 91.535122,16.8907317 C91.535122,16.6707317 91.3882927,16.5053659 91.0970732,16.395122 C90.804878,16.2839024 90.397561,16.1741463 89.875122,16.0639024 C89.6619512,16.0165854 89.4546341,15.9595122 89.2521951,15.8931707 C89.0487805,15.8278049 88.8687805,15.7419512 88.7107317,15.635122 C88.5517073,15.5282927 88.4258537,15.3936585 88.3297561,15.2317073 C88.2326829,15.0702439 88.1853659,14.8717073 88.1853659,14.637561 C88.1853659,14.2926829 88.2521951,14.0097561 88.3853659,13.7897561 C88.52,13.5692683 88.6965854,13.395122 88.9170732,13.2673171 C89.1365854,13.14 89.3839024,13.0512195 89.6590244,12.9985366 C89.9341463,12.9473171 90.215122,12.9214634 90.5034146,12.9214634 C90.7926829,12.9214634 91.0726829,12.9492683 91.3434146,13.0039024 C91.6156098,13.0590244 91.8580488,13.1517073 92.0702439,13.2829268 C92.2839024,13.4146341 92.4604878,13.5878049 92.6014634,13.8053659 C92.7419512,14.0219512 92.8263415,14.2965854 92.8531707,14.6268293 L91.462439,14.6268293 C91.4414634,14.3453659 91.335122,14.1531707 91.1434146,14.0531707 C90.9497561,13.9526829 90.7234146,13.9034146 90.462439,13.9034146 C90.3804878,13.9034146 90.2902439,13.9092683 90.1946341,13.9190244 C90.0985366,13.9292683 90.0107317,13.9517073 89.9321951,13.9858537 C89.8536585,14.0214634 89.7853659,14.0707317 89.7307317,14.1356098 C89.6756098,14.2019512 89.6482927,14.2897561 89.6482927,14.4 C89.6482927,14.5302439 89.6970732,14.637561 89.7926829,14.7204878 C89.8887805,14.8029268 90.0141463,14.8702439 90.1687805,14.9214634 C90.3234146,14.9736585 90.5,15.0195122 90.6995122,15.0609756 C90.8990244,15.1029268 91.102439,15.1473171 91.3082927,15.1956098 C91.5204878,15.2443902 91.7287805,15.3019512 91.9312195,15.3712195 C92.1341463,15.4404878 92.3146341,15.5317073 92.4726829,15.6453659 C92.6297561,15.7595122 92.757561,15.9004878 92.8531707,16.0697561 C92.9502439,16.2380488 92.9980488,16.4468293 92.9980488,16.695122 C92.9980488,17.0458537 92.9278049,17.3409756 92.7863415,17.5785366 C92.6458537,17.8165854 92.4614634,18.0078049 92.2360976,18.1521951 Z M86.5873171,27.8185366 C86.5595122,27.7360976 86.5380488,27.6521951 86.5204878,27.5658537 C86.5034146,27.4790244 86.4912195,27.3917073 86.484878,27.302439 C86.2502439,27.5434146 85.9760976,27.7126829 85.6604878,27.8087805 C85.3439024,27.904878 85.0209756,27.9531707 84.6912195,27.9531707 C84.4370732,27.9531707 84.2004878,27.9229268 83.9809756,27.86 C83.76,27.7980488 83.5678049,27.7014634 83.4034146,27.5707317 C83.2380488,27.4395122 83.1092683,27.2741463 83.0165854,27.0746341 C82.9229268,26.8746341 82.8770732,26.637561 82.8770732,26.3614634 C82.8770732,26.057561 82.9307317,25.8082927 83.0370732,25.6117073 C83.1429268,25.415122 83.2809756,25.2580488 83.4492683,25.1419512 C83.617561,25.0243902 83.8102439,24.9356098 84.0263415,24.877561 C84.2434146,24.82 84.4604878,24.7726829 84.6814634,24.7380488 C84.9009756,24.7039024 85.1165854,24.6765854 85.3297561,24.655122 C85.5434146,24.6356098 85.7326829,24.6039024 85.897561,24.5629268 C86.0619512,24.5214634 86.1926829,24.4604878 86.2887805,24.3814634 C86.3853659,24.3019512 86.4297561,24.1873171 86.422439,24.035122 C86.422439,23.8770732 86.3965854,23.7512195 86.3458537,23.657561 C86.2936585,23.564878 86.224878,23.4921951 86.14,23.4414634 C86.0541463,23.3887805 85.9541463,23.3546341 85.8404878,23.337561 C85.7268293,23.3195122 85.6058537,23.3117073 85.4746341,23.3117073 C85.1863415,23.3117073 84.9595122,23.3731707 84.795122,23.4980488 C84.6287805,23.6219512 84.5331707,23.8282927 84.5058537,24.1170732 L83.0419512,24.1170732 C83.0629268,23.7736585 83.1487805,23.4868293 83.2995122,23.2604878 C83.4507317,23.0331707 83.6439024,22.8502439 83.8770732,22.7121951 C84.1102439,22.5736585 84.3726829,22.4756098 84.6658537,22.417561 C84.957561,22.3585366 85.2512195,22.3297561 85.5473171,22.3297561 C85.815122,22.3297561 86.0858537,22.3487805 86.3614634,22.3868293 C86.6360976,22.4239024 86.8868293,22.4980488 87.1131707,22.6082927 C87.3404878,22.7190244 87.5263415,22.8717073 87.6702439,23.0682927 C87.8146341,23.264878 87.8868293,23.524878 87.8868293,23.8497561 L87.8868293,26.6302439 C87.8868293,26.8717073 87.9,27.1019512 87.9278049,27.322439 C87.955122,27.5434146 88.0034146,27.7087805 88.0721951,27.8185366 L86.5873171,27.8185366 Z M86.422439,25.2029268 C86.3614634,25.2580488 86.2834146,25.3014634 86.1912195,25.3326829 C86.097561,25.3634146 85.9990244,25.3892683 85.8917073,25.4092683 C85.7858537,25.4307317 85.6741463,25.4482927 85.557561,25.4619512 C85.44,25.4756098 85.3239024,25.4931707 85.2068293,25.5131707 C85.0965854,25.5346341 84.9887805,25.562439 84.8814634,25.5960976 C84.775122,25.6312195 84.682439,25.677561 84.6034146,25.7356098 C84.524878,25.7941463 84.4604878,25.8687805 84.4131707,25.9580488 C84.364878,26.0478049 84.3409756,26.1609756 84.3409756,26.2985366 C84.3409756,26.4302439 84.364878,26.5404878 84.4131707,26.6302439 C84.4604878,26.7195122 84.5263415,26.7902439 84.6092683,26.842439 C84.6912195,26.8941463 84.7873171,26.9292683 84.8970732,26.9507317 C85.0073171,26.9702439 85.1204878,26.9819512 85.237561,26.9819512 C85.5258537,26.9819512 85.7492683,26.9331707 85.9073171,26.8370732 C86.0658537,26.7404878 86.1819512,26.624878 86.2580488,26.4907317 C86.3341463,26.3560976 86.3795122,26.22 86.3965854,26.082439 C86.4141463,25.944878 86.422439,25.8336585 86.422439,25.7507317 L86.422439,25.2029268 Z M86.1858537,17.7287805 L86.164878,17.7287805 C85.9931707,18.0185366 85.7678049,18.2263415 85.4887805,18.3536585 C85.2112195,18.4814634 84.8970732,18.544878 84.5468293,18.544878 C84.1478049,18.544878 83.797561,18.4678049 83.4956098,18.3126829 C83.1926829,18.1580488 82.9439024,17.9478049 82.7482927,17.6814634 C82.5517073,17.4165854 82.404878,17.1121951 82.304878,16.7668293 C82.2053659,16.4229268 82.155122,16.0639024 82.155122,15.6921951 C82.155122,15.3336585 82.2053659,14.9878049 82.304878,14.6536585 C82.404878,14.3180488 82.5517073,14.0239024 82.7482927,13.7682927 C82.9439024,13.5146341 83.1897561,13.3087805 83.4853659,13.1531707 C83.78,12.9985366 84.1239024,12.9214634 84.5156098,12.9214634 C84.8312195,12.9214634 85.1326829,12.9882927 85.4180488,13.1219512 C85.7029268,13.257561 85.9278049,13.4556098 86.0921951,13.717561 L86.1131707,13.717561 L86.1131707,11.0297561 L87.5765854,11.0297561 L87.5765854,18.4112195 L86.1858537,18.4112195 L86.1858537,17.7287805 Z M86.1029268,15.0873171 C86.0619512,14.8834146 85.9912195,14.704878 85.8917073,14.5497561 C85.7921951,14.3946341 85.6629268,14.2687805 85.504878,14.1726829 C85.3468293,14.0760976 85.1478049,14.0273171 84.9073171,14.0273171 C84.6668293,14.0273171 84.4643902,14.0760976 84.2990244,14.1726829 C84.1341463,14.2687805 84.0009756,14.3965854 83.9029268,14.555122 C83.8029268,14.7131707 83.7307317,14.8936585 83.6853659,15.097561 C83.6409756,15.3 83.6190244,15.5121951 83.6190244,15.7336585 C83.6190244,15.94 83.6429268,16.1468293 83.6917073,16.3531707 C83.7390244,16.5604878 83.8160976,16.744878 83.9229268,16.9068293 C84.0297561,17.0692683 84.1634146,17.1990244 84.3253659,17.2990244 C84.4863415,17.4 84.6804878,17.4492683 84.9073171,17.4492683 C85.1478049,17.4492683 85.3482927,17.4014634 85.5102439,17.304878 C85.6717073,17.2087805 85.8,17.0790244 85.8960976,16.9160976 C85.9931707,16.755122 86.0619512,16.5707317 86.1029268,16.3639024 C86.1443902,16.1565854 86.164878,15.9439024 86.164878,15.722439 C86.164878,15.502439 86.1443902,15.2907317 86.1029268,15.0873171 Z M82.3102439,24.242439 L82.3102439,27.8185366 L80.8458537,27.8185366 L80.8458537,24.7897561 C80.8458537,24.6102439 80.8395122,24.4429268 80.8258537,24.2839024 C80.8121951,24.124878 80.775122,23.9868293 80.7126829,23.8697561 C80.6502439,23.7531707 80.56,23.66 80.4390244,23.5907317 C80.3195122,23.5219512 80.1560976,23.4868293 79.9492683,23.4868293 C79.7434146,23.4868293 79.5770732,23.5273171 79.4497561,23.6063415 C79.322439,23.6853659 79.2229268,23.7887805 79.1507317,23.9165854 C79.0795122,24.0443902 79.0312195,24.1892683 79.0068293,24.3507317 C78.982439,24.5121951 78.9707317,24.6765854 78.9707317,24.8414634 L78.9707317,27.8185366 L77.5073171,27.8185366 L77.5073171,24.8204878 C77.5073171,24.662439 77.5039024,24.5053659 77.4970732,24.3507317 C77.4897561,24.1956098 77.4604878,24.0521951 77.4092683,23.9209756 C77.3580488,23.7907317 77.2721951,23.6853659 77.1517073,23.6063415 C77.0317073,23.5273171 76.8536585,23.4868293 76.6209756,23.4868293 C76.5521951,23.4868293 76.4614634,23.502439 76.3482927,23.5341463 C76.2341463,23.564878 76.124878,23.6234146 76.017561,23.7097561 C75.9112195,23.7965854 75.8204878,23.92 75.744878,24.0819512 C75.6687805,24.2443902 75.6312195,24.4560976 75.6312195,24.717561 L75.6312195,27.8185366 L74.1673171,27.8185366 L74.1673171,22.4746341 L75.5492683,22.4746341 L75.5492683,23.1980488 L75.5692683,23.1980488 C75.7614634,22.9229268 75.9936585,22.7082927 76.2653659,22.5565854 C76.5360976,22.4053659 76.8478049,22.3297561 77.1980488,22.3297561 C77.5346341,22.3297561 77.842439,22.395122 78.1204878,22.5263415 C78.3985366,22.6570732 78.6097561,22.8878049 78.7546341,23.2190244 C78.9117073,22.9839024 79.1268293,22.777561 79.3990244,22.5980488 C79.6692683,22.4185366 79.9907317,22.3297561 80.3619512,22.3297561 C80.6443902,22.3297561 80.904878,22.3634146 81.1453659,22.4321951 C81.3858537,22.5019512 81.5921951,22.6121951 81.7639024,22.7639024 C81.9356098,22.915122 82.0692683,23.1136585 82.1658537,23.3585366 C82.2619512,23.602439 82.3102439,23.8970732 82.3102439,24.242439 Z M80.1663415,15.3921951 C80.1663415,14.9507317 80.0980488,14.6219512 79.9609756,14.4043902 C79.8219512,14.1882927 79.5790244,14.0790244 79.2282927,14.0790244 C78.8292683,14.0790244 78.5414634,14.1985366 78.3629268,14.4356098 C78.1839024,14.6731707 78.095122,15.0643902 78.095122,15.6087805 L78.095122,18.4112195 L76.6302439,18.4112195 L76.6302439,13.0663415 L78.022439,13.0663415 L78.022439,13.8102439 L78.0536585,13.8102439 C78.2380488,13.5004878 78.4790244,13.275122 78.7746341,13.1336585 C79.0702439,12.9921951 79.3721951,12.9214634 79.6809756,12.9214634 C80.0726829,12.9214634 80.3946341,12.9746341 80.6458537,13.0809756 C80.8965854,13.1887805 81.0941463,13.3360976 81.2380488,13.5263415 C81.382439,13.715122 81.4839024,13.9468293 81.542439,14.2185366 C81.6004878,14.4907317 81.6302439,14.7931707 81.6302439,15.1229268 L81.6302439,18.4112195 L80.1663415,18.4112195 L80.1663415,15.3921951 Z M79.0736585,8.62585366 C78.8473171,8.62585366 78.6326829,8.6102439 78.4297561,8.5795122 C78.2278049,8.54829268 78.0487805,8.48829268 77.8941463,8.39902439 C77.7404878,8.30878049 77.6170732,8.18146341 77.5282927,8.01658537 C77.4390244,7.85121951 77.3941463,7.63317073 77.3941463,7.36487805 L77.3941463,4.21219512 L76.5082927,4.21219512 L76.5082927,3.2297561 L77.3941463,3.2297561 L77.3941463,1.62731707 L78.8580488,1.62731707 L78.8580488,3.2297561 L79.9292683,3.2297561 L79.9292683,4.21219512 L78.8580488,4.21219512 L78.8580488,6.85804878 C78.8580488,7.10682927 78.8990244,7.27170732 78.9814634,7.35463415 C79.0639024,7.43707317 79.2282927,7.47804878 79.4770732,7.47804878 C79.5590244,7.47804878 79.637561,7.47463415 79.7136585,7.46829268 C79.7882927,7.4604878 79.8609756,7.45121951 79.9292683,7.43707317 L79.9292683,8.57463415 C79.8058537,8.59512195 79.6687805,8.60829268 79.517561,8.61560976 C79.3658537,8.62243902 79.2180488,8.62585366 79.0736585,8.62585366 Z M73.6785366,5.08487805 C73.8336585,5.13707317 74.0097561,5.18292683 74.2097561,5.22439024 C74.4087805,5.26634146 74.6121951,5.31073171 74.8180488,5.35902439 C75.0302439,5.40829268 75.2390244,5.46585366 75.4414634,5.53463415 C75.6443902,5.60439024 75.824878,5.69512195 75.9829268,5.80878049 C76.1404878,5.92292683 76.2673171,6.06390244 76.3634146,6.23317073 C76.4595122,6.40146341 76.5082927,6.6102439 76.5082927,6.85804878 C76.5082927,7.2097561 76.437561,7.50439024 76.2970732,7.74243902 C76.1556098,7.98 75.9717073,8.17121951 75.7458537,8.31560976 C75.5190244,8.46097561 75.2590244,8.56195122 74.9668293,8.62097561 C74.675122,8.6795122 74.3780488,8.70829268 74.0760976,8.70829268 C73.7663415,8.70829268 73.4634146,8.67804878 73.1697561,8.61560976 C72.8731707,8.55365854 72.6097561,8.4502439 72.38,8.30536585 C72.1497561,8.1604878 71.9614634,7.96926829 71.8131707,7.73170732 C71.6653659,7.49414634 71.584878,7.19560976 71.5712195,6.83804878 L72.962439,6.83804878 C72.962439,6.99609756 72.995122,7.13268293 73.0604878,7.24634146 C73.1258537,7.3595122 73.2102439,7.45268293 73.3131707,7.52487805 C73.4160976,7.59804878 73.5341463,7.65073171 73.6687805,7.68487805 C73.802439,7.72 73.9414634,7.73756098 74.0858537,7.73756098 C74.1892683,7.73756098 74.2970732,7.72536585 74.4107317,7.70097561 C74.5243902,7.67658537 74.6268293,7.63902439 74.7204878,7.58634146 C74.8121951,7.53512195 74.8902439,7.46634146 74.9517073,7.38 C75.0136585,7.29414634 75.044878,7.18585366 75.044878,7.05463415 C75.044878,6.83414634 74.8985366,6.66926829 74.6068293,6.55853659 C74.3146341,6.44829268 73.9078049,6.33756098 73.384878,6.22731707 C73.1717073,6.18 72.9643902,6.12292683 72.7619512,6.05658537 C72.5590244,5.99170732 72.3780488,5.90536585 72.22,5.79902439 C72.0619512,5.69170732 71.9356098,5.55756098 71.8395122,5.39512195 C71.7419512,5.23365854 71.6946341,5.03512195 71.6946341,4.80146341 C71.6946341,4.45609756 71.7614634,4.17317073 71.8956098,3.95317073 C72.0297561,3.73317073 72.2063415,3.55853659 72.4268293,3.43121951 C72.6463415,3.30341463 72.8936585,3.21463415 73.1697561,3.16243902 C73.4439024,3.11121951 73.724878,3.08536585 74.0136585,3.08536585 C74.3029268,3.08536585 74.5829268,3.11268293 74.8536585,3.16780488 C75.1258537,3.22292683 75.3678049,3.31560976 75.5804878,3.44682927 C75.7931707,3.57804878 75.9697561,3.75121951 76.1112195,3.96878049 C76.2517073,4.18536585 76.3360976,4.46 76.3634146,4.7902439 L74.9721951,4.7902439 C74.9517073,4.50878049 74.8458537,4.31658537 74.6531707,4.21658537 C74.46,4.11707317 74.2331707,4.06731707 73.9726829,4.06731707 C73.8902439,4.06731707 73.8004878,4.07268293 73.7043902,4.08243902 C73.6082927,4.09268293 73.5204878,4.11609756 73.4419512,4.1497561 C73.3629268,4.18487805 73.295122,4.23414634 73.2404878,4.29902439 C73.1858537,4.36536585 73.1580488,4.45365854 73.1580488,4.56390244 C73.1580488,4.69414634 73.2063415,4.80146341 73.3029268,4.88390244 C73.3985366,4.96682927 73.5243902,5.03365854 73.6785366,5.08487805 Z M73.5390244,12.9214634 C73.9926829,12.9214634 74.3878049,13.0092683 74.7243902,13.184878 C75.0614634,13.3614634 75.337561,13.5965854 75.5531707,13.8936585 C75.7702439,14.1897561 75.9268293,14.5278049 76.0229268,14.9068293 C76.1190244,15.2858537 76.1536585,15.6809756 76.1263415,16.095122 L72.2814634,16.095122 C72.302439,16.5707317 72.422439,16.9156098 72.6419512,17.1287805 C72.862439,17.342439 73.1780488,17.4492683 73.5912195,17.4492683 C73.8858537,17.4492683 74.14,17.3756098 74.3531707,17.2268293 C74.5663415,17.0790244 74.6970732,16.9219512 74.744878,16.7565854 L76.0336585,16.7565854 C75.8268293,17.3970732 75.5107317,17.8565854 75.084878,18.1317073 C74.6585366,18.4068293 74.1434146,18.544878 73.5390244,18.544878 C73.1195122,18.544878 72.7414634,18.4780488 72.404878,18.3434146 C72.0682927,18.2087805 71.7839024,18.0185366 71.5492683,17.7702439 C71.3165854,17.5214634 71.1360976,17.2258537 71.0087805,16.8809756 C70.8814634,16.5370732 70.8180488,16.1565854 70.8180488,15.7434146 C70.8180488,15.3434146 70.8834146,14.9717073 71.0146341,14.6268293 C71.1439024,14.282439 71.3297561,13.9839024 71.5707317,13.7331707 C71.8112195,13.4814634 72.0970732,13.2829268 72.4302439,13.1380488 C72.7643902,12.9936585 73.1331707,12.9214634 73.5390244,12.9214634 Z M72.2814634,15.1643902 L74.662439,15.1643902 C74.5936585,14.7931707 74.4721951,14.5102439 74.2960976,14.3165854 C74.1214634,14.1234146 73.8556098,14.0273171 73.497561,14.0273171 C73.2643902,14.0273171 73.0697561,14.0668293 72.9156098,14.1468293 C72.7609756,14.2253659 72.637561,14.3239024 72.5439024,14.4414634 C72.4517073,14.557561 72.3858537,14.6829268 72.3482927,14.8131707 C72.3107317,14.9443902 72.2887805,15.0609756 72.2814634,15.1643902 Z M67.84,7.29268293 C68.0604878,7.50585366 68.3760976,7.61268293 68.7887805,7.61268293 C69.0834146,7.61268293 69.337561,7.53902439 69.5512195,7.3902439 C69.7639024,7.24243902 69.895122,7.08536585 69.942439,6.9204878 L71.2307317,6.9204878 C71.024878,7.56097561 70.7082927,8.02 70.2829268,8.29560976 C69.8565854,8.57121951 69.3414634,8.70829268 68.7365854,8.70829268 C68.317561,8.70829268 67.94,8.64146341 67.6029268,8.50731707 C67.2663415,8.37268293 66.9814634,8.18146341 66.7473171,7.93365854 C66.5136585,7.68487805 66.3331707,7.38926829 66.2068293,7.04439024 C66.0790244,6.7004878 66.0160976,6.32 66.0160976,5.90682927 C66.0160976,5.50682927 66.0809756,5.13512195 66.2117073,4.7902439 C66.3414634,4.44634146 66.5273171,4.14780488 66.7682927,3.89658537 C67.0087805,3.64487805 67.2956098,3.44682927 67.6282927,3.30195122 C67.9619512,3.15804878 68.3312195,3.08536585 68.7365854,3.08536585 C69.1902439,3.08536585 69.5858537,3.17317073 69.922439,3.34878049 C70.2590244,3.52487805 70.5356098,3.7604878 70.7517073,4.05707317 C70.9682927,4.35365854 71.124878,4.69121951 71.2204878,5.0702439 C71.3170732,5.44926829 71.3517073,5.84439024 71.3243902,6.25853659 L67.4795122,6.25853659 C67.5009756,6.73414634 67.6204878,7.0795122 67.84,7.29268293 Z M69.86,5.32829268 C69.7917073,4.95658537 69.6697561,4.67365854 69.4941463,4.48 C69.3195122,4.28731707 69.0531707,4.19073171 68.695122,4.19073171 C68.4619512,4.19073171 68.2682927,4.23073171 68.1136585,4.3102439 C67.9580488,4.38926829 67.8356098,4.48780488 67.742439,4.60487805 C67.6497561,4.72097561 67.584878,4.84634146 67.5463415,4.97658537 C67.5087805,5.10780488 67.4863415,5.22439024 67.4795122,5.32829268 L69.86,5.32829268 Z M64.8970732,8.06731707 C64.6526829,8.2404878 64.3746341,8.36780488 64.062439,8.4502439 C63.7497561,8.53268293 63.4282927,8.57463415 63.0990244,8.57463415 L59.5321951,8.57463415 L59.5321951,1.19317073 L62.9956098,1.19317073 C63.3458537,1.19317073 63.6653659,1.22341463 63.9531707,1.28585366 C64.2429268,1.34780488 64.4897561,1.4497561 64.6960976,1.59073171 C64.902439,1.73219512 65.0619512,1.92 65.1756098,2.15463415 C65.2887805,2.38829268 65.3453659,2.67853659 65.3453659,3.02292683 C65.3453659,3.39560976 65.2609756,3.70536585 65.0926829,3.95317073 C64.9239024,4.20097561 64.6756098,4.40487805 64.3458537,4.56390244 C64.7990244,4.69414634 65.137561,4.92341463 65.3614634,5.25073171 C65.5843902,5.57756098 65.6960976,5.97219512 65.6960976,6.43365854 C65.6960976,6.80682927 65.6239024,7.12878049 65.4795122,7.40146341 C65.335122,7.67317073 65.1414634,7.89560976 64.8970732,8.06731707 Z M63.6863415,2.87853659 C63.6239024,2.76829268 63.5419512,2.68195122 63.4380488,2.6195122 C63.3360976,2.55707317 63.2165854,2.51463415 63.0834146,2.4902439 C62.9487805,2.46585366 62.8097561,2.45414634 62.664878,2.45414634 L61.1512195,2.45414634 L61.1512195,4.18097561 L62.7902439,4.18097561 C63.0780488,4.18097561 63.315122,4.11219512 63.5004878,3.97463415 C63.6863415,3.83560976 63.7785366,3.61170732 63.7785366,3.30195122 C63.7785366,3.1297561 63.7473171,2.98829268 63.6863415,2.87853659 Z M63.757561,5.5302439 C63.5453659,5.36780488 63.2634146,5.28682927 62.9131707,5.28682927 L61.1512195,5.28682927 L61.1512195,7.31317073 L62.8819512,7.31317073 C63.0404878,7.31317073 63.1917073,7.29756098 63.3360976,7.26634146 C63.4795122,7.23512195 63.6068293,7.18341463 63.7165854,7.11121951 C63.8258537,7.03853659 63.9141463,6.9404878 63.98,6.81658537 C64.0453659,6.69268293 64.0780488,6.53414634 64.0780488,6.34097561 C64.0780488,5.96243902 63.9707317,5.69170732 63.757561,5.5302439 Z M59.5321951,18.4112195 L59.5321951,11.0297561 L64.7063415,11.0297561 L64.7063415,12.3936585 L61.1512195,12.3936585 L61.1512195,14.1004878 L64.2326829,14.1004878 L64.2326829,15.3609756 L61.1512195,15.3609756 L61.1512195,18.4112195 L59.5321951,18.4112195 Z M63.2009756,20.4380488 L65.9536585,27.8185366 L64.2736585,27.8185366 L63.7165854,26.175122 L60.9653659,26.175122 L60.3878049,27.8185366 L58.7590244,27.8185366 L61.542439,20.4380488 L63.2009756,20.4380488 Z M63.2946341,24.9653659 L62.3668293,22.2570732 L62.3458537,22.2570732 L61.3878049,24.9653659 L63.2946341,24.9653659 Z M50.5839024,0.487317073 L51.4356098,0.487317073 L51.4356098,37.7804878 L50.5839024,37.7804878 L50.5839024,0.487317073 Z M22.0629268,34.1853659 C14.3287805,37.6326829 4.72536585,35.9673171 0,27.6526829 L4.48878049,24.4292683 C7.03560976,28.7590244 11.257561,31.6770732 16.5760976,30.5273171 C13.2868293,27.3907317 10.9453659,22.7873171 10.7087805,16.02 C13.6243902,13.9336585 17.7956098,12.5858537 22.0639024,12.582439 C26.3307317,12.5858537 30.5014634,13.9336585 33.417561,16.02 C33.18,22.7878049 30.8370732,27.3946341 27.5463415,30.5302439 C32.9390244,31.6980488 37.2068293,28.6819512 39.737561,24.2531707 L44.2268293,27.4780488 C39.54,35.944878 29.8526829,37.6580488 22.0629268,34.1853659 Z M22.0639024,17.5443902 C20.0390244,17.5443902 18.0673171,18.0209756 17.0878049,18.6097561 C17.6258537,23.3297561 20.1258537,26.344878 22.0639024,27.9317073 C23.9995122,26.344878 26.4995122,23.3297561 27.0390244,18.6082927 C26.057561,18.0209756 24.0873171,17.5443902 22.0639024,17.5443902 Z M32.0819512,8.80341463 C30.0965854,8.80341463 28.4863415,6.97902439 28.4863415,4.72731707 C28.4863415,2.47609756 30.0965854,0.650243902 32.0819512,0.650243902 C34.0668293,0.650243902 35.677561,2.47609756 35.677561,4.72731707 C35.677561,6.97902439 34.0668293,8.80341463 32.0819512,8.80341463 Z M12.0434146,8.80341463 C10.0565854,8.80341463 8.44780488,6.97902439 8.44780488,4.72731707 C8.44780488,2.47609756 10.0565854,0.650243902 12.0434146,0.650243902 C14.0287805,0.650243902 15.6395122,2.47609756 15.6395122,4.72731707 C15.6395122,6.97902439 14.0287805,8.80341463 12.0434146,8.80341463 Z M60.7692683,35.8365854 C60.8580488,36.0078049 60.9770732,36.1473171 61.124878,36.2546341 C61.2721951,36.3609756 61.4453659,36.4395122 61.644878,36.4921951 C61.8443902,36.5439024 62.0502439,36.5692683 62.2634146,36.5692683 C62.4082927,36.5692683 62.562439,36.557561 62.7278049,36.5336585 C62.8921951,36.5097561 63.0468293,36.4629268 63.1917073,36.3941463 C63.3360976,36.3253659 63.4556098,36.2307317 63.5517073,36.1097561 C63.6478049,35.9892683 63.6965854,35.8365854 63.6965854,35.6497561 C63.6965854,35.4497561 63.6321951,35.2882927 63.504878,35.1639024 C63.377561,35.0395122 63.2117073,34.9365854 63.0053659,34.8531707 C62.7995122,34.7707317 62.5668293,34.6980488 62.304878,34.6365854 C62.0439024,34.5741463 61.7795122,34.5053659 61.5112195,34.4302439 C61.2356098,34.3614634 60.9682927,34.2770732 60.7068293,34.1770732 C60.4463415,34.0770732 60.2126829,33.9473171 60.0063415,33.7887805 C59.8,33.6307317 59.6341463,33.4326829 59.5068293,33.195122 C59.3795122,32.957561 59.3160976,32.6692683 59.3160976,32.3312195 C59.3160976,31.9517073 59.3965854,31.622439 59.5580488,31.3439024 C59.7195122,31.064878 59.9307317,30.8321951 60.1921951,30.6458537 C60.4526829,30.46 60.7482927,30.3219512 61.0785366,30.2321951 C61.4078049,30.1429268 61.7385366,30.0980488 62.0678049,30.0980488 C62.4526829,30.0980488 62.8214634,30.1409756 63.1756098,30.2273171 C63.5297561,30.3136585 63.8439024,30.4531707 64.1195122,30.6458537 C64.3936585,30.8380488 64.6117073,31.0858537 64.7736585,31.3853659 C64.9346341,31.684878 65.0156098,32.0487805 65.0156098,32.4765854 L63.4492683,32.4765854 C63.4346341,32.255122 63.3892683,32.0721951 63.3092683,31.9287805 C63.2307317,31.7834146 63.1258537,31.6687805 62.9956098,31.5863415 C62.8643902,31.5039024 62.7156098,31.444878 62.5468293,31.4112195 C62.3790244,31.3765854 62.1946341,31.3590244 61.995122,31.3590244 C61.8658537,31.3590244 61.7346341,31.3731707 61.6034146,31.4009756 C61.4736585,31.4282927 61.355122,31.4765854 61.2487805,31.5458537 C61.1419512,31.6146341 61.0536585,31.7 60.9853659,31.8043902 C60.9165854,31.9068293 60.8829268,32.0380488 60.8829268,32.1965854 C60.8829268,32.3409756 60.9107317,32.4590244 60.9653659,32.5482927 C61.02,32.637561 61.1278049,32.7204878 61.2892683,32.7970732 C61.4512195,32.8731707 61.6746341,32.9478049 61.9595122,33.0243902 C62.2439024,33.0995122 62.617561,33.1970732 63.0780488,33.3131707 C63.215122,33.3409756 63.4063415,33.3912195 63.6492683,33.4629268 C63.8941463,33.5356098 64.1356098,33.6507317 64.3760976,33.8097561 C64.6170732,33.9687805 64.8243902,34.1809756 65.0004878,34.4458537 C65.1756098,34.7107317 65.2629268,35.0497561 65.2629268,35.4634146 C65.2629268,35.8014634 65.197561,36.115122 65.0668293,36.4043902 C64.9360976,36.6936585 64.742439,36.9439024 64.4853659,37.1541463 C64.2273171,37.3643902 63.9082927,37.5278049 63.5263415,37.6453659 C63.144878,37.7619512 62.7034146,37.8209756 62.202439,37.8209756 C61.7956098,37.8209756 61.4034146,37.7707317 61.0219512,37.6707317 C60.64,37.5707317 60.3039024,37.4136585 60.0112195,37.2004878 C59.7195122,36.9873171 59.4873171,36.7141463 59.3160976,36.3843902 C59.1439024,36.0531707 59.0614634,35.66 59.0682927,35.204878 L60.6346341,35.204878 C60.6346341,35.4536585 60.6795122,35.6639024 60.7692683,35.8365854 Z M66.2936585,32.9360976 C66.5341463,32.6917073 66.822439,32.5019512 67.1590244,32.3668293 C67.4956098,32.2331707 67.8741463,32.1658537 68.2941463,32.1658537 C68.7117073,32.1658537 69.0917073,32.2331707 69.4317073,32.3668293 C69.7721951,32.5019512 70.062439,32.6917073 70.3029268,32.9360976 C70.5434146,33.1814634 70.7292683,33.4770732 70.8595122,33.8258537 C70.9902439,34.1731707 71.055122,34.5604878 71.055122,34.9882927 C71.055122,35.4160976 70.9902439,35.8014634 70.8595122,36.1458537 C70.7292683,36.4902439 70.5434146,36.7853659 70.3029268,37.0302439 C70.062439,37.2741463 69.7721951,37.462439 69.4317073,37.5931707 C69.0917073,37.7239024 68.7117073,37.7892683 68.2941463,37.7892683 C67.8741463,37.7892683 67.4956098,37.7239024 67.1590244,37.5931707 C66.822439,37.462439 66.5341463,37.2741463 66.2936585,37.0302439 C66.0526829,36.7853659 65.8673171,36.4902439 65.7365854,36.1458537 C65.6063415,35.8014634 65.5409756,35.4160976 65.5409756,34.9882927 C65.5409756,34.5604878 65.6063415,34.1731707 65.7365854,33.8258537 C65.8673171,33.4770732 66.0526829,33.1814634 66.2936585,32.9360976 Z M67.0663415,35.6131707 C67.1078049,35.8170732 67.1785366,36 67.2780488,36.1609756 C67.3780488,36.3239024 67.5092683,36.4526829 67.675122,36.5492683 C67.84,36.6458537 68.0458537,36.6936585 68.2941463,36.6936585 C68.5409756,36.6936585 68.7487805,36.6458537 68.9165854,36.5492683 C69.0853659,36.4526829 69.2185366,36.3239024 69.3185366,36.1609756 C69.4180488,36 69.4887805,35.8170732 69.5302439,35.6131707 C69.5707317,35.4102439 69.5921951,35.202439 69.5921951,34.9882927 C69.5921951,34.7741463 69.5707317,34.5643902 69.5302439,34.357561 C69.4887805,34.1512195 69.4180488,33.9687805 69.3185366,33.8097561 C69.2185366,33.6507317 69.0853659,33.5219512 68.9165854,33.4214634 C68.7487805,33.322439 68.5409756,33.2717073 68.2941463,33.2717073 C68.0458537,33.2717073 67.84,33.322439 67.675122,33.4214634 C67.5092683,33.5219512 67.3780488,33.6507317 67.2780488,33.8097561 C67.1785366,33.9687805 67.1078049,34.1512195 67.0663415,34.357561 C67.0253659,34.5643902 67.004878,34.7741463 67.004878,34.9882927 C67.004878,35.202439 67.0253659,35.4102439 67.0663415,35.6131707 Z M65.1287805,18.4112195 L65.1287805,13.0663415 L66.5204878,13.0663415 L66.5204878,14.0585366 L66.54,14.0585366 C66.6092683,13.8936585 66.702439,13.74 66.8195122,13.5990244 C66.9356098,13.4570732 67.0707317,13.3360976 67.2214634,13.2365854 C67.3721951,13.1370732 67.5336585,13.0590244 67.7053659,13.0039024 C67.8770732,12.9492683 68.0556098,12.9214634 68.2414634,12.9214634 C68.337561,12.9214634 68.4434146,12.9390244 68.5609756,12.9731707 L68.5609756,14.337561 C68.4921951,14.3239024 68.4097561,14.3121951 68.3136585,14.3019512 C68.2180488,14.2907317 68.1243902,14.2863415 68.0356098,14.2863415 C67.7673171,14.2863415 67.5409756,14.3312195 67.3546341,14.42 C67.1702439,14.5102439 67.02,14.6326829 66.9063415,14.7873171 C66.7926829,14.942439 66.7126829,15.1229268 66.664878,15.3297561 C66.6160976,15.5370732 66.5926829,15.7609756 66.5926829,16.0014634 L66.5926829,18.4112195 L65.1287805,18.4112195 Z M70.9892683,23.6268293 C71.0468293,23.8990244 71.0765854,24.2014634 71.0765854,24.5312195 L71.0765854,27.8185366 L69.6131707,27.8185366 L69.6131707,24.8004878 C69.6131707,24.3585366 69.5443902,24.0302439 69.4073171,23.8126829 C69.2692683,23.5960976 69.0258537,23.4868293 68.6756098,23.4868293 C68.2765854,23.4868293 67.9882927,23.6063415 67.8097561,23.8439024 C67.6302439,24.0819512 67.5414634,24.4721951 67.5414634,25.0165854 L67.5414634,27.8185366 L66.0770732,27.8185366 L66.0770732,22.4746341 L67.4692683,22.4746341 L67.4692683,23.2190244 L67.5009756,23.2190244 C67.6853659,22.9087805 67.9258537,22.682439 68.2214634,22.5419512 C68.5170732,22.4004878 68.8190244,22.3297561 69.1278049,22.3297561 C69.52,22.3297561 69.8409756,22.3829268 70.0926829,22.4892683 C70.3439024,22.5960976 70.5414634,22.744878 70.684878,22.9346341 C70.8292683,23.1234146 70.9307317,23.3546341 70.9892683,23.6268293 Z M68.8190244,11.0297561 L70.2829268,11.0297561 L70.2829268,12.2385366 L68.8190244,12.2385366 L68.8190244,11.0297561 Z M70.2829268,18.4112195 L68.8190244,18.4112195 L68.8190244,13.0663415 L70.2829268,13.0663415 L70.2829268,18.4112195 Z M71.8697561,20.4380488 L73.3341463,20.4380488 L73.3341463,21.6468293 L71.8697561,21.6468293 L71.8697561,20.4380488 Z M73.3341463,27.8185366 L71.8697561,27.8185366 L71.8697561,22.4746341 L73.3341463,22.4746341 L73.3341463,27.8185366 Z M72.1887805,32.9873171 C72.422439,32.7297561 72.7082927,32.5278049 73.044878,32.3829268 C73.3814634,32.2385366 73.7663415,32.1658537 74.1995122,32.1658537 C74.515122,32.1658537 74.8190244,32.2073171 75.1117073,32.2902439 C75.4039024,32.3721951 75.6643902,32.4980488 75.8946341,32.6673171 C76.124878,32.8360976 76.3121951,33.0458537 76.4570732,33.297561 C76.6,33.5492683 76.682439,33.8473171 76.7039024,34.1926829 L75.2712195,34.1926829 C75.1746341,33.5785366 74.8146341,33.2717073 74.1882927,33.2717073 C73.955122,33.2717073 73.7595122,33.3253659 73.6009756,33.4326829 C73.4439024,33.5390244 73.3146341,33.6765854 73.2146341,33.8453659 C73.115122,34.0146341 73.044878,34.2009756 73.0034146,34.4034146 C72.962439,34.6073171 72.9419512,34.8092683 72.9419512,35.0082927 C72.9419512,35.202439 72.962439,35.3985366 73.0034146,35.5980488 C73.044878,35.797561 73.1117073,35.9780488 73.204878,36.1409756 C73.297561,36.3029268 73.422439,36.4356098 73.5804878,36.5380488 C73.7385366,36.6419512 73.9312195,36.6936585 74.1585366,36.6936585 C74.5092683,36.6936585 74.7770732,36.5956098 74.9668293,36.3990244 C75.1556098,36.2019512 75.2746341,35.9390244 75.3229268,35.6082927 L76.735122,35.6082927 C76.6380488,36.3180488 76.3634146,36.8595122 75.9102439,37.2317073 C75.4565854,37.6039024 74.8756098,37.7892683 74.1682927,37.7892683 C73.7692683,37.7892683 73.4029268,37.722439 73.0697561,37.5882927 C72.7370732,37.4536585 72.4536585,37.2663415 72.22,37.024878 C71.9873171,36.7839024 71.8043902,36.4960976 71.6741463,36.1609756 C71.5429268,35.8273171 71.4780488,35.46 71.4780488,35.0604878 C71.4780488,34.6463415 71.5380488,34.2629268 71.6585366,33.9078049 C71.7780488,33.5526829 71.9560976,33.2463415 72.1887805,32.9873171 Z M78.702439,31.4834146 L77.2385366,31.4834146 L77.2385366,30.2741463 L78.702439,30.2741463 L78.702439,31.4834146 Z M78.702439,37.655122 L77.2385366,37.655122 L77.2385366,32.3107317 L78.702439,32.3107317 L78.702439,37.655122 Z M79.9907317,32.977561 C80.2317073,32.7258537 80.5180488,32.5278049 80.8512195,32.3829268 C81.1853659,32.2385366 81.5536585,32.1658537 81.9590244,32.1658537 C82.4131707,32.1658537 82.8082927,32.2536585 83.144878,32.4297561 C83.482439,32.6053659 83.7580488,32.8409756 83.9736585,33.137561 C84.1912195,33.4346341 84.3473171,33.7726829 84.4434146,34.1512195 C84.5395122,34.5302439 84.5741463,34.9258537 84.5468293,35.34 L80.7014634,35.34 C80.7234146,35.815122 80.8429268,36.1604878 81.062439,36.3731707 C81.2834146,36.5868293 81.5985366,36.6936585 82.0112195,36.6936585 C82.3058537,36.6936585 82.56,36.62 82.7736585,36.4712195 C82.9863415,36.3239024 83.117561,36.1663415 83.164878,36.0014634 L84.4531707,36.0014634 C84.2478049,36.6419512 83.9312195,37.1009756 83.5053659,37.3765854 C83.0790244,37.6517073 82.5639024,37.7892683 81.9590244,37.7892683 C81.54,37.7892683 81.1619512,37.722439 80.8253659,37.5882927 C80.4887805,37.4536585 80.2034146,37.262439 79.9697561,37.0146341 C79.7360976,36.7663415 79.5560976,36.4702439 79.4287805,36.1253659 C79.3014634,35.7809756 79.2385366,35.4009756 79.2385366,34.9882927 C79.2385366,34.5878049 79.3039024,34.2160976 79.4341463,33.8712195 C79.5639024,33.5268293 79.7507317,33.2287805 79.9907317,32.977561 Z M83.0829268,34.4087805 C83.0136585,34.037561 82.8926829,33.755122 82.7170732,33.5614634 C82.5419512,33.3678049 82.2756098,33.2717073 81.9180488,33.2717073 C81.684878,33.2717073 81.4907317,33.3117073 81.3360976,33.3912195 C81.1809756,33.4702439 81.057561,33.5687805 80.9643902,33.6853659 C80.8717073,33.802439 80.8068293,33.9273171 80.7687805,34.057561 C80.7312195,34.1887805 80.7092683,34.3053659 80.7014634,34.4087805 L83.0829268,34.4087805 Z M85.442439,30.7082927 L86.9068293,30.7082927 L86.9068293,32.3107317 L87.9780488,32.3107317 L87.9780488,33.2931707 L86.9068293,33.2931707 L86.9068293,35.9390244 C86.9068293,36.1878049 86.9482927,36.3526829 87.0307317,36.4356098 C87.1126829,36.5180488 87.2770732,36.5595122 87.5253659,36.5595122 C87.6078049,36.5595122 87.6868293,36.5556098 87.762439,36.5492683 C87.8370732,36.5419512 87.9097561,36.5317073 87.9780488,36.5180488 L87.9780488,37.655122 C87.8546341,37.6760976 87.717561,37.6892683 87.5658537,37.6965854 C87.4146341,37.7029268 87.2673171,37.7068293 87.1229268,37.7068293 C86.8960976,37.7068293 86.6809756,37.6912195 86.4785366,37.6609756 C86.2765854,37.6302439 86.097561,37.5692683 85.9429268,37.48 C85.7887805,37.3902439 85.6658537,37.262439 85.5770732,37.0970732 C85.4873171,36.9321951 85.442439,36.7141463 85.442439,36.4458537 L85.442439,33.2931707 L84.5565854,33.2931707 L84.5565854,32.3107317 L85.442439,32.3107317 L85.442439,30.7082927 Z M88.7,20.4380488 L90.1643902,20.4380488 L90.1643902,27.8185366 L88.7,27.8185366 L88.7,20.4380488 Z M88.1380488,32.3107317 L89.6946341,32.3107317 L90.8995122,35.9702439 L90.9204878,35.9702439 L92.0853659,32.3107317 L93.6009756,32.3107317 L91.3746341,38.317561 C91.2160976,38.7512195 90.9965854,39.0614634 90.715122,39.2482927 C90.4331707,39.4331707 90.0414634,39.5268293 89.54,39.5268293 C89.3882927,39.5268293 89.2385366,39.5214634 89.0912195,39.5112195 C88.9434146,39.5004878 88.7941463,39.4882927 88.6429268,39.4746341 L88.6429268,38.2658537 C88.7804878,38.2795122 88.9214634,38.2926829 89.0643902,38.3068293 C89.2097561,38.3209756 89.3541463,38.3234146 89.4990244,38.317561 C89.6912195,38.2960976 89.8341463,38.2209756 89.9258537,38.0897561 C90.0185366,37.9585366 90.0653659,37.8141463 90.0653659,37.655122 C90.0653659,37.5380488 90.0453659,37.4273171 90.0029268,37.324878 L88.1380488,32.3107317 Z" id="Shape"></path>
        </g>
    </g>
</svg>